<svg width="168" height="40" viewBox="0 0 168 40" fill="none" xmlns="http://www.w3.org/2000/svg" role="img" aria-labelledby="title desc">
  <title id="title">EASY_VPN Nexus</title>
  <desc id="desc">Shield logo with connected tunnel lines for EASY_VPN Nexus.</desc>
  <defs>
    <linearGradient id="mark" x1="4" y1="4" x2="36" y2="36" gradientUnits="userSpaceOnUse">
      <stop stop-color="#4F46E5"/>
      <stop offset="1" stop-color="#7C3AED"/>
    </linearGradient>
    <linearGradient id="text" x1="48" y1="11" x2="164" y2="31" gradientUnits="userSpaceOnUse">
      <stop stop-color="#0F172A"/>
      <stop offset="0.66" stop-color="#334155"/>
      <stop offset="1" stop-color="#4F46E5"/>
    </linearGradient>
  </defs>
  <rect x="1" y="1" width="38" height="38" rx="10" fill="white" stroke="#E2E8F0" stroke-width="2"/>
  <path d="M20 6.5L31 11V19.2C31 26.2 26.5 31.7 20 34C13.5 31.7 9 26.2 9 19.2V11L20 6.5Z" fill="url(#mark)"/>
  <path d="M14 20H18.2L16.8 27L26 16.5H21.8L23.2 10L14 20Z" fill="white"/>
  <path d="M7.5 14.5H3.5M36.5 14.5H32.5M7.5 25.5H3.5M36.5 25.5H32.5" stroke="#818CF8" stroke-width="2" stroke-linecap="round"/>
  <text x="48" y="19" fill="url(#text)" font-family="Inter, ui-sans-serif, system-ui, -apple-system, BlinkMacSystemFont, Segoe UI, sans-serif" font-size="14" font-weight="800" letter-spacing="0">EASY_VPN</text>
  <text x="48" y="32" fill="#64748B" font-family="Inter, ui-sans-serif, system-ui, -apple-system, BlinkMacSystemFont, Segoe UI, sans-serif" font-size="10" font-weight="700" letter-spacing="1.6">NEXUS</text>
</svg>
